<?xml version="1.0" encoding="UTF-8"?>
<svg width="1080" height="1080" version="1.1" viewBox="0 0 285.75 285.75" xmlns="http://www.w3.org/2000/svg">
<g>
<rect x="1.9073e-6" y="1.9073e-6" width="285.75" height="285.75" rx="43.539" ry="43.539" fill="#1e8bd9"/>
</g>
<g transform="matrix(1.1234 0 0 1.1234 -17.635 -17.596)" stroke-width=".89013">
<g transform="matrix(.87982 0 0 .87982 17.17 20.623)" stroke-width="1.0117">
<circle transform="rotate(90)" cx="67.656" cy="-142.68" r="12.855" fill="#2c2c2c" style="font-variation-settings:'wght' 700"/>
<g transform="matrix(1.1232 0 0 1.1232 -13.156 3.2823)">
<path transform="rotate(90)" d="m41.817-168.72c9.5902-5.5369 21.406-5.5369 30.996 0m-30.996 59.934c9.5902 5.5369 21.406 5.5369 30.996 0" fill="none" stroke="#2c2c2c" stroke-linecap="round" stroke-width="9.3689" style="font-variation-settings:'wght' 700"/>
<path transform="rotate(90)" d="m29.193-190.58c17.402-10.047 38.842-10.047 56.244 0m-56.244 103.66c17.402 10.047 38.842 10.047 56.244-1e-6" fill="none" stroke="#2c2c2c" stroke-linecap="round" stroke-width="9.3689" style="font-variation-settings:'wght' 700"/>
<g stroke-width="1.0117">
<path transform="rotate(90)" d="m18.237-214.61c24.181-13.961 53.974-13.961 78.155 0m-78.155 151.71c24.181 13.961 53.974 13.961 78.155-2e-6" fill="none" stroke="#2c2c2c" stroke-linecap="round" stroke-width="9.3689" style="font-variation-settings:'wght' 700"/>
</g>
</g>
<g transform="translate(33.799 25.28)" fill="#2c2c2c" stroke-width="1.0117">
<path d="m79.325 103.4c-14.435 0-26.244 11.621-26.244 26.055v20.567h-36.231c-8.7281 0-15.753 7.0268-15.753 15.755v22.19c0 8.7281 7.0252 15.755 15.753 15.755h1.2672c0.0113-0.089 0.02294-0.17816 0.035-0.26713 0.15848-0.89856 0.35622-1.7894 0.59242-2.6707 0.2362-0.88151 0.51085-1.7525 0.823-2.61 0.31212-0.85747 0.66123-1.7007 1.0469-2.5277 0.38573-0.82693 0.80724-1.6371 1.2636-2.4273 0.45614-0.7901 0.94672-1.5595 1.47-2.3069 0.52329-0.74749 1.0791-1.472 1.6656-2.171 0.58645-0.69905 1.2031-1.3723 1.8483-2.0176 0.64544-0.64514 1.3184-1.2618 2.0176-1.8483 0.69888-0.58644 1.4232-1.1418 2.1705-1.6651 0.74747-0.52358 1.5176-1.0146 2.3079-1.471 0.79022-0.45604 1.5998-0.8771 2.4268-1.2626 0.82699-0.38583 1.6702-0.73565 2.5277-1.0479 0.85755-0.31197 1.7286-0.58643 2.61-0.82249 0.88136-0.23619 1.7727-0.43342 2.6713-0.5919 0.89857-0.15843 1.8035-0.27767 2.7125-0.35718 0.909-0.0795 1.8211-0.11947 2.7336-0.11942 0.91247-5e-5 1.8246 0.04 2.7336 0.11942 0.90896 0.0794 1.8139 0.19875 2.7125 0.35718 0.89859 0.15848 1.7899 0.35571 2.6713 0.5919 0.88132 0.23607 1.7516 0.51053 2.609 0.82249 0.85747 0.31228 1.7012 0.6621 2.5282 1.0479 0.82695 0.38546 1.6366 0.80652 2.4268 1.2626 0.79042 0.4564 1.5608 0.9474 2.3084 1.471 0.74749 0.52329 1.4714 1.0786 2.1705 1.6651 0.6989 0.58643 1.3719 1.2031 2.0171 1.8483 0.64512 0.64529 1.2618 1.3186 1.8483 2.0176 0.58659 0.69901 1.1426 1.4235 1.6661 2.171 0.52341 0.74733 1.0137 1.5168 1.47 2.3069 0.45619 0.79021 0.87801 1.6004 1.2636 2.4273 0.38551 0.82701 0.73442 1.6702 1.0464 2.5277 0.31216 0.85752 0.5868 1.7285 0.82302 2.61 0.23616 0.88133 0.43393 1.7722 0.5924 2.6707 0.01225 0.0889 0.02401 0.17808 0.03556 0.26713h57.178c0.0114-0.0891 0.0228-0.17807 0.035-0.26713 0.15848-0.89858 0.3557-1.7894 0.5919-2.6707 0.23621-0.88138 0.51086-1.7526 0.82301-2.61 0.31201-0.85747 0.66184-1.7007 1.0474-2.5277 0.38555-0.82691 0.80638-1.6371 1.2626-2.4273 0.45626-0.79018 0.94703-1.5595 1.4705-2.3069 0.52337-0.74748 1.079-1.472 1.6656-2.171 0.58648-0.69897 1.2031-1.3724 1.8483-2.0176 0.64521-0.64515 1.3187-1.2618 2.0176-1.8483 0.69901-0.58656 1.4235-1.1416 2.171-1.6651 0.74757-0.52343 1.517-1.0147 2.3074-1.471 0.79019-0.45618 1.6004-0.87699 2.4273-1.2626 0.82701-0.38573 1.6702-0.73574 2.5277-1.0479 0.85746-0.31193 1.7286-0.58644 2.61-0.82249 0.88139-0.2362 1.7722-0.43341 2.6708-0.5919 0.89853-0.15843 1.804-0.27766 2.7129-0.35718 0.909-0.0795 1.8211-0.1194 2.7336-0.11942 0.91249 2e-5 1.824 0.0399 2.733 0.11942 0.90895 0.0795 1.8144 0.19875 2.713 0.35718 0.89861 0.15849 1.7899 0.3557 2.6713 0.5919 0.88137 0.23605 1.7515 0.51056 2.609 0.82249 0.85745 0.31219 1.7012 0.6622 2.5282 1.0479 0.82695 0.38557 1.6366 0.80638 2.4268 1.2626 0.79036 0.45627 1.5603 0.94756 2.3079 1.471 0.74728 0.52341 1.4711 1.0785 2.17 1.6651 0.69913 0.58646 1.3728 1.2031 2.0181 1.8483 0.64517 0.64521 1.2618 1.3186 1.8483 2.0176 0.58654 0.69901 1.1422 1.4235 1.6656 2.171 0.52328 0.74741 1.0138 1.5167 1.47 2.3069 0.45633 0.7902 0.87784 1.6004 1.2636 2.4273 0.38555 0.82701 0.73487 1.6702 1.0469 2.5277 0.31213 0.85743 0.5868 1.7286 0.82301 2.61 0.23619 0.88135 0.43393 1.7722 0.59242 2.6707 0.0121 0.089 0.0236 0.17799 0.0349 0.26713h1.2667c8.7281 0 16.805-7.0268 16.805-15.755v-37.945c2e-5 -1.9796 0-9.8627 0-20.567 0-14.435-11.621-26.055-26.055-26.055zm-0.18889 10.108h111.62c7.5982 0 13.715 6.1169 13.715 13.715v22.55h-139.05v-22.55c0-7.5982 6.1169-13.715 13.715-13.715z"/>
<path d="m193.22 208.9a25.157 25.157 0 0 1-25.158 25.157 25.157 25.157 0 0 1-25.157-25.157 25.157 25.157 0 0 1 25.157-25.157 25.157 25.157 0 0 1 25.158 25.157z" stroke-linecap="round" stroke-width="25.068"/>
<path d="m23.882 208.9a25.157 25.157 0 0 0 25.157 25.157 25.157 25.157 0 0 0 25.157-25.157 25.157 25.157 0 0 0-25.157-25.157 25.157 25.157 0 0 0-25.157 25.157z" stroke-linecap="round" stroke-width="25.068"/>
<rect x="134.83" y="108.36" width="10.379" height="45.788"/>
</g>
</g>
</g>
</svg>
